<?xml version="1.0" encoding="UTF-8" standalone="no"?>
<!-- Created with Inkscape (http://www.inkscape.org/) -->

<svg
   xmlns:dc="http://purl.org/dc/elements/1.1/"
   xmlns:cc="http://creativecommons.org/ns#"
   xmlns:rdf="http://www.w3.org/1999/02/22-rdf-syntax-ns#"
   xmlns:svg="http://www.w3.org/2000/svg"
   xmlns="http://www.w3.org/2000/svg"
   xmlns:sodipodi="http://sodipodi.sourceforge.net/DTD/sodipodi-0.dtd"
   xmlns:inkscape="http://www.inkscape.org/namespaces/inkscape"
   width="210mm"
   height="297mm"
   viewBox="0 0 210 297"
   version="1.1"
   id="svg8"
   inkscape:version="0.92.5 (2060ec1f9f, 2020-04-08)"
   sodipodi:docname="hs_stavebni_ink.svg">
  <defs
     id="defs2">
    <clipPath
       clipPathUnits="userSpaceOnUse"
       id="clipPath968">
      <text
         xml:space="preserve"
         style="font-style:normal;font-variant:normal;font-weight:normal;font-stretch:normal;font-size:34.61195755px;line-height:1.5;font-family:FreeMono;-inkscape-font-specification:FreeMono;letter-spacing:0.69050872px;word-spacing:0.73723477px;stroke-width:0.5191794"
         x="61.182976"
         y="142.18259"
         id="text972"
         transform="scale(1.0551668,0.94771747)"><tspan
           sodipodi:role="line"
           id="tspan970"
           x="61.182976"
           y="142.18259"
           style="font-style:normal;font-variant:normal;font-weight:normal;font-stretch:normal;font-family:Anton;-inkscape-font-specification:Anton;stroke-width:0.5191794">hs</tspan></text>
    </clipPath>
  </defs>
  <sodipodi:namedview
     id="base"
     pagecolor="#ffffff"
     bordercolor="#666666"
     borderopacity="1.0"
     inkscape:pageopacity="0.0"
     inkscape:pageshadow="2"
     inkscape:zoom="2"
     inkscape:cx="291.91673"
     inkscape:cy="878.65059"
     inkscape:document-units="mm"
     inkscape:current-layer="layer1"
     showgrid="false"
     showguides="false"
     inkscape:guide-bbox="true"
     inkscape:window-width="1920"
     inkscape:window-height="1032"
     inkscape:window-x="0"
     inkscape:window-y="0"
     inkscape:window-maximized="1">
    <sodipodi:guide
       position="80.314493,215.55287"
       orientation="0,1"
       id="guide848"
       inkscape:locked="false" />
    <sodipodi:guide
       position="15.902537,247.22432"
       orientation="1,0"
       id="guide850"
       inkscape:locked="false" />
    <sodipodi:guide
       position="59.200199,238.80533"
       orientation="1,0"
       id="guide852"
       inkscape:locked="false" />
    <sodipodi:guide
       position="25.25697,247.09069"
       orientation="1,0"
       id="guide854"
       inkscape:locked="false" />
    <sodipodi:guide
       position="31.805073,238.6717"
       orientation="1,0"
       id="guide856"
       inkscape:locked="false" />
    <sodipodi:guide
       position="-8.9535292,228.38181"
       orientation="0.61394145,-0.78935157"
       id="guide858"
       inkscape:locked="false" />
    <sodipodi:guide
       position="118.66767,209.27204"
       orientation="0.56333663,0.82622748"
       id="guide868"
       inkscape:locked="false" />
    <sodipodi:guide
       position="25.256969,264.53002"
       orientation="0,1"
       id="guide888"
       inkscape:locked="false" />
    <sodipodi:guide
       position="45.088368,154.34816"
       orientation="0,1"
       id="guide1091"
       inkscape:locked="false" />
  </sodipodi:namedview>
  <metadata
     id="metadata5">
    <rdf:RDF>
      <cc:Work
         rdf:about="">
        <dc:format>image/svg+xml</dc:format>
        <dc:type
           rdf:resource="http://purl.org/dc/dcmitype/StillImage" />
        <dc:title></dc:title>
      </cc:Work>
    </rdf:RDF>
  </metadata>
  <g
     inkscape:label="Vrstva 1"
     inkscape:groupmode="layer"
     id="layer1">
    <text
       xml:space="preserve"
       style="font-style:normal;font-variant:normal;font-weight:normal;font-stretch:normal;font-size:34.61195755px;line-height:1.5;font-family:FreeMono;-inkscape-font-specification:FreeMono;letter-spacing:0.69050872px;word-spacing:0.73723477px;stroke-width:0.5191794;fill:#e36b0a;fill-opacity:1;"
       x="61.47179"
       y="85.628304"
       id="text817"
       transform="scale(1.0551668,0.94771749)"><tspan
         sodipodi:role="line"
         id="tspan815"
         x="61.47179"
         y="85.628304"
         style="font-style:normal;font-variant:normal;font-weight:normal;font-stretch:normal;font-family:Anton;-inkscape-font-specification:Anton;stroke-width:0.5191794;fill:#e36b0a;fill-opacity:1;">stavební</tspan></text>
    <g
       aria-label="h"
       transform="scale(1.0551668,0.94771747)"
       style="font-style:normal;font-variant:normal;font-weight:normal;font-stretch:normal;font-size:34.61195755px;line-height:1.5;font-family:FreeMono;-inkscape-font-specification:FreeMono;letter-spacing:0.69050872px;word-spacing:0.73723477px;stroke-width:0.1;fill:none;stroke-miterlimit:4;stroke-dasharray:none;stroke:#000000;stroke-opacity:1"
       id="text817-3-9" />
    <path
       style="fill:#e36b0a;fill-opacity:1;stroke:none;stroke-width:0.1;stroke-linecap:butt;stroke-linejoin:miter;stroke-miterlimit:4;stroke-dasharray:none;stroke-opacity:1"
       d="m 41.229664,81.447128 h 8.816554 v 0 c -4.082392,-0.50948 -6.119988,-2.92657 -6.119988,-7.15228 v -1.90599 h 6.419776 v 2.81895 c 0,0.54457 0.118884,0.97168 0.356654,1.28134 0.237769,0.30966 0.6182,0.46449 1.141293,0.46449 0.927301,0 1.390952,-0.62466 1.390952,-1.87397 0,-1.04642 -0.243714,-1.82591 -0.731142,-2.33844 -0.487427,-0.52322 -1.081851,-1.02508 -1.783271,-1.50558 l -3.406047,-2.35447 c -1.069963,-0.74745 -1.884323,-1.53761 -2.443081,-2.37048 -0.558759,-0.83287 -0.838137,-1.99141 -0.838137,-3.47564 0,-1.37745 0.362598,-2.51463 1.087794,-3.41157 0.737086,-0.89695 1.705996,-1.56431 2.906733,-2.0021 1.212624,-0.4378 2.520355,-0.65669 3.923195,-0.65669 3.816317,0 6.227732,1.25895 7.234243,3.77683 l 0.01503,0.0527 v -13.6123 L 37.622591,32.469985 31.805073,36.916986 v 0 c -4.12e-4,10.393452 0.02761,15.075372 0.04142,22.613052 0.344766,-0.89694 0.873803,-1.55897 1.587112,-1.98609 0.713308,-0.43778 1.5455,-0.65668 2.496578,-0.65668 1.854602,0 3.203943,0.52322 4.048025,1.56964 0.844082,1.04643 1.267498,2.45057 1.266123,4.21241 l -0.01466,18.77781"
       id="path898-1"
       inkscape:connector-curvature="0"
       sodipodi:nodetypes="cccsccscssccccsccsccccccccscsc" />
    <g
       aria-label="hs"
       transform="matrix(1.0551668,0,0,0.94771747,-45.655064,-40.070999)"
       style="font-style:normal;font-variant:normal;font-weight:normal;font-stretch:normal;font-size:34.61195755px;line-height:1.5;font-family:FreeMono;-inkscape-font-specification:FreeMono;letter-spacing:0.69050872px;word-spacing:0.73723477px;fill:#e36b0a;fill-opacity:1;stroke:#000000;stroke-width:0.1;stroke-miterlimit:4;stroke-dasharray:none;stroke-opacity:0"
       id="text817-3-8">
      <path
         d="m 76.280953,128.18772 v -19.33686 c 0,-0.55208 -0.118303,-1.00276 -0.354908,-1.35203 -0.225339,-0.34928 -0.58588,-0.52392 -1.081624,-0.52392 -0.416876,0 -0.74925,0.18027 -0.997122,0.54082 -0.236605,0.36054 -0.354907,0.78868 -0.354907,1.28442 l -0.08207,19.39396 2.870629,-0.006"
         style="font-style:normal;font-variant:normal;font-weight:normal;font-stretch:normal;font-family:Anton;-inkscape-font-specification:Anton;fill:#e36b0a;fill-opacity:1;stroke:#000000;stroke-width:0.1;stroke-miterlimit:4;stroke-dasharray:none;stroke-opacity:0"
         id="path1010"
         inkscape:connector-curvature="0"
         sodipodi:nodetypes="cscscscc" />
    </g>
    <path
       sodipodi:nodetypes="ccscssccccc"
       inkscape:connector-curvature="0"
       id="path1084"
       style="font-style:normal;font-variant:normal;font-weight:normal;font-stretch:normal;font-size:34.61195755px;line-height:1.5;font-family:Anton;-inkscape-font-specification:Anton;letter-spacing:0.69050872px;word-spacing:0.73723477px;fill:#e36b0a;fill-opacity:1;stroke:none;stroke-width:0.01;stroke-miterlimit:4;stroke-dasharray:none;stroke-opacity:1"
       d="m 59.200197,64.370818 h -6.070222 v -0.91295 c 0,-0.4805 -0.09511,-0.945 -0.285323,-1.39347 -0.178328,-0.44847 -0.534982,-0.6727 -1.069963,-0.6727 -0.903523,0 -1.355286,0.42712 -1.355286,1.28134 0,0.86491 0.380431,1.54295 1.141293,2.03414 l 3.958863,2.59471 c 1.236401,0.80084 2.270697,1.75117 3.102891,2.85099 0.22279,0.29029 0.416179,0.60587 0.580165,0.94675 z" />
    <path
       style="fill:#e36b0a;fill-opacity:1;stroke:none;stroke-width:0.01;stroke-linecap:butt;stroke-linejoin:miter;stroke-miterlimit:4;stroke-dasharray:none;stroke-opacity:1"
       d="m 53.127417,81.419798 6.07278,0.001 -6.75e-4,-3.57076 c 0,0 -0.843015,1.33095 -1.470805,1.84821 -1.175774,0.97685 -2.714936,1.55114 -4.617489,1.7229 z"
       id="path1087"
       inkscape:connector-curvature="0"
       sodipodi:nodetypes="cccccc" />
    <path
       style="fill:#e36b0a;fill-opacity:1;stroke:none;stroke-width:0.26458332px;stroke-linecap:butt;stroke-linejoin:miter;stroke-opacity:1"
       d="m 25.256968,32.44365 v 9.539988 l 6.548103,-5.092982 V 32.44365 Z"
       id="path890-8"
       inkscape:connector-curvature="0" />
    <path
       style="fill:#e36b0a;fill-opacity:1;stroke:none;stroke-width:0.26458332px;stroke-linecap:butt;stroke-linejoin:miter;stroke-opacity:1"
       d="m 15.902535,49.259318 v 32.16148 h 9.354433 v -39.43716 z"
       id="path892-9"
       inkscape:connector-curvature="0" />
  </g>
</svg>
